<?xml version="1.0" standalone="no"?>
<!DOCTYPE svg PUBLIC "-//W3C//DTD SVG 20010904//EN"
 "http://www.w3.org/TR/2001/REC-SVG-20010904/DTD/svg10.dtd">
<svg version="1.0" xmlns="http://www.w3.org/2000/svg"
 width="128.000000pt" height="128.000000pt" viewBox="0 0 128.000000 128.000000"
 preserveAspectRatio="xMidYMid meet">

<g transform="translate(0.000000,128.000000) scale(0.100000,-0.100000)"
fill="#000000" stroke="none">
<path d="M505 1076 c-71 -17 -151 -63 -206 -118 -53 -53 -107 -154 -114 -213
l-5 -40 13 45 c37 124 125 228 240 281 68 32 78 34 177 34 126 -1 194 -23 262
-86 24 -22 35 -38 26 -35 -10 3 -18 1 -18 -4 0 -5 10 -11 23 -13 22 -4 22 -4
-3 -12 -23 -8 -22 -9 15 -21 22 -6 32 -12 23 -13 -10 -1 -18 -6 -18 -12 0 -15
61 -3 71 13 9 14 -19 50 -32 42 -4 -2 -26 15 -48 39 -95 103 -260 149 -406
113z"/>
<path d="M832 975 c-10 -12 -8 -16 13 -21 32 -8 42 1 25 21 -15 18 -21 18 -38
0z"/>
<path d="M720 961 c0 -6 10 -11 23 -11 18 0 19 -2 7 -10 -11 -7 -8 -10 15 -9
17 0 24 3 17 6 -6 2 -10 9 -6 14 3 5 -1 9 -10 9 -8 0 -21 3 -30 6 -9 3 -16 1
-16 -5z"/>
<path d="M834 922 c22 -26 36 -28 36 -7 0 8 -4 15 -9 15 -5 0 -18 3 -28 7 -17
6 -17 5 1 -15z"/>
<path d="M1000 855 c0 -7 7 -18 15 -23 19 -10 9 -43 -11 -35 -19 7 -31 -27
-13 -38 12 -8 12 -10 -1 -19 -13 -8 -13 -12 4 -27 17 -16 18 -16 13 -1 -5 15
-2 16 20 7 30 -11 38 -7 29 16 -4 10 -13 14 -24 11 -14 -5 -22 1 -31 21 -9 21
-9 25 -1 16 16 -15 40 -6 33 13 -3 8 -2 14 1 14 14 0 37 -74 32 -99 l-6 -26
20 24 c23 27 26 49 6 57 -8 3 -17 16 -20 29 -6 24 -47 75 -60 75 -3 0 -6 -7
-6 -15z"/>
<path d="M966 831 c-3 -5 0 -11 7 -14 8 -3 14 1 14 9 0 16 -13 19 -21 5z"/>
<path d="M410 823 c0 -5 -18 -27 -38 -50 -25 -28 -47 -43 -63 -43 -13 0 -31
-5 -39 -10 -11 -7 -6 -8 18 -4 38 8 39 2 11 -37 -26 -37 -49 -38 -49 -2 0 20
-3 24 -11 16 -14 -14 -5 -41 17 -50 10 -4 30 9 58 36 43 43 61 50 69 29 4 -10
6 -10 6 0 1 6 8 12 16 12 12 0 14 -9 10 -42 -4 -36 -3 -39 4 -15 19 56 55 79
45 28 -3 -16 -2 -31 3 -34 5 -3 9 13 8 36 l0 42 -37 -2 c-21 -1 -38 -1 -38 1
0 2 7 23 15 46 8 23 15 44 15 46 0 8 -20 4 -20 -3z m-17 -71 c-3 -12 -12 -22
-20 -22 -14 0 -11 10 10 38 13 17 17 11 10 -16z"/>
<path d="M802 765 c-6 -14 -18 -25 -26 -25 -8 0 -26 -14 -39 -32 -22 -27 -23
-33 -11 -45 14 -15 34 -10 34 8 0 6 -4 7 -10 4 -13 -8 -13 11 0 36 6 10 18 19
27 19 14 0 14 -2 0 -24 -14 -20 -14 -26 -2 -42 14 -18 14 -17 15 8 0 15 7 46
16 68 18 45 14 66 -4 25z"/>
<path d="M617 692 c-16 -25 -22 -40 -14 -33 13 10 16 9 20 -6 4 -16 5 -15 6 2
1 23 28 65 41 65 5 0 6 -16 3 -35 -3 -19 -2 -35 3 -35 5 0 9 19 9 41 0 34 -4
42 -20 45 -15 2 -28 -10 -48 -44z"/>
<path d="M564 705 c-9 -19 -9 -28 2 -42 12 -16 13 -13 14 25 0 23 -1 42 -2 42
-2 0 -8 -11 -14 -25z"/>
<path d="M868 723 c7 -3 16 -2 19 1 4 3 -2 6 -13 5 -11 0 -14 -3 -6 -6z"/>
<path d="M509 682 c-15 -27 -15 -28 9 -27 14 0 27 6 30 14 3 9 0 11 -8 6 -10
-6 -12 -2 -8 13 8 31 -4 27 -23 -6z"/>
<path d="M823 682 l-21 -28 23 1 c12 0 29 6 38 14 15 12 17 11 17 -3 0 -21 24
-20 41 2 11 14 11 15 -1 5 -22 -20 -30 -16 -30 15 l0 27 -26 -30 -25 -30 6 28
c7 34 4 34 -22 -1z"/>
<path d="M173 655 c0 -27 2 -38 4 -22 2 15 2 37 0 50 -2 12 -4 0 -4 -28z"/>
<path d="M1030 685 c7 -9 15 -13 17 -11 7 7 -7 26 -19 26 -6 0 -6 -6 2 -15z"/>
<path d="M991 545 c0 -11 4 -27 9 -35 9 -13 10 -13 9 0 0 8 -4 24 -9 35 l-9
20 0 -20z"/>
<path d="M904 344 c7 -17 -23 -32 -33 -16 -3 6 -11 8 -17 4 -12 -8 -28 -43
-25 -55 2 -12 -85 -46 -154 -58 -48 -9 -80 -9 -131 -1 -82 14 -95 9 -23 -8
100 -24 258 5 316 58 25 23 38 29 28 12 -3 -5 3 -10 14 -10 12 0 21 7 21 15 0
7 8 19 18 24 9 6 13 11 9 11 -4 0 -3 8 2 18 8 14 5 18 -11 19 -14 1 -18 -3
-14 -13z"/>
<path d="M420 245 c14 -8 30 -14 35 -14 6 0 -1 6 -15 14 -14 8 -29 14 -35 14
-5 0 1 -6 15 -14z"/>
</g>
</svg>
